<?xml version="1.0" encoding="UTF-8"?><svg id="a" xmlns="http://www.w3.org/2000/svg" width="16" height="16" viewBox="0 0 16 16"><defs><style>.b{fill:#6393ff;}</style></defs><path class="b" d="M5.78,7.76c.71-.11,1.45-.16,2.22-.16s1.51.05,2.22.16c-.3,1.38-1.2,2.41-2.22,2.41s-1.92-1.03-2.22-2.41Z"/><path class="b" d="M15.76,11.34c0,2.07-3.47,3.74-7.76,3.74S.24,13.41.24,11.34c0-1.33,1.43-2.5,3.6-3.15.49,2.29,2.16,3.98,4.16,3.98s3.67-1.69,4.16-3.98c2.17.65,3.6,1.82,3.6,3.15Z"/><path class="b" d="M8,1.35c-2.39,0-4.32,2.43-4.32,5.41,0,.5.05.98.16,1.43.6-.19,1.25-.34,1.94-.43-.06-.32-.1-.66-.1-1,0-1.84,1.06-3.41,2.32-3.41s2.32,1.57,2.32,3.41c0,.34-.04.68-.1,1,.69.09,1.34.24,1.94.43.11-.45.16-.93.16-1.43,0-2.98-1.93-5.41-4.32-5.41Z"/></svg>